<svg width="35" height="30" viewBox="0 0 35 30" fill="none" xmlns="http://www.w3.org/2000/svg">
<path d="M34.911 8.82011C34.829 7.22609 34.5282 6.13021 34.0974 5.18062C33.6528 4.17266 32.969 3.27023 32.073 2.52003C31.1976 1.75816 30.1376 1.16616 28.9751 0.791173C27.8606 0.421913 26.5885 0.164141 24.7285 0.0938601C22.8545 0.0176274 22.2596 0 17.5068 0C12.754 0 12.1591 0.0176274 10.2921 0.0879081C8.43204 0.158189 7.15328 0.41619 6.04548 0.785221C4.86903 1.16616 3.81599 1.75221 2.9406 2.52003C2.05158 3.27023 1.36104 4.17861 0.923211 5.1749C0.492326 6.13021 0.191534 7.22014 0.109524 8.81416C0.0205692 10.4201 0 10.9299 0 15.003C0 19.0761 0.0205692 19.5859 0.102579 21.1858C0.184589 22.7799 0.485647 23.8757 0.916532 24.8253C1.36104 25.8333 2.05158 26.7357 2.9406 27.4859C3.81599 28.2478 4.87597 28.8398 6.03854 29.2148C7.15328 29.584 8.4251 29.8418 10.2854 29.9121C12.1521 29.9826 12.7473 30 17.5001 30C22.253 30 22.8479 29.9826 24.7149 29.9121C26.5749 29.8418 27.8537 29.584 28.9615 29.2148C31.3141 28.4353 33.1741 26.8413 34.0837 24.8253C34.5144 23.87 34.8154 22.7799 34.8974 21.1858C34.9794 19.5859 35 19.0761 35 15.003C35 10.9299 34.9931 10.4201 34.911 8.82011ZM31.7586 21.0686C31.6833 22.5338 31.3961 23.3249 31.1568 23.8524C30.5685 25.1593 29.3582 26.1966 27.8331 26.7007C27.2176 26.9058 26.2877 27.1519 24.5848 27.2162C22.7383 27.2868 22.1846 27.3042 17.5138 27.3042C12.8429 27.3042 12.2822 27.2868 10.4425 27.2162C8.73284 27.1519 7.80963 26.9058 7.19415 26.7007C6.43523 26.4603 5.74442 26.0794 5.18371 25.5812C4.60243 25.0948 4.15792 24.5087 3.87743 23.8583C3.63808 23.3309 3.35091 22.5338 3.27585 21.0746C3.19357 19.4922 3.17327 19.0174 3.17327 15.0147C3.17327 11.0119 3.19357 10.5313 3.27585 8.95495C3.35091 7.48981 3.63808 6.69864 3.87743 6.17119C4.15792 5.52058 4.60243 4.9288 5.19066 4.44806C5.75805 3.94991 6.44191 3.56898 7.2011 3.32883C7.81657 3.12371 8.74673 2.87762 10.4494 2.81306C12.2959 2.74278 12.8499 2.72515 17.5204 2.72515C22.1982 2.72515 22.752 2.74278 24.5917 2.81306C26.3014 2.87762 27.2246 3.12371 27.84 3.32883C28.599 3.56898 29.2898 3.94991 29.8505 4.44806C30.4318 4.93453 30.8763 5.52058 31.1568 6.17119C31.3961 6.69864 31.6833 7.49554 31.7586 8.95495C31.8406 10.5373 31.8612 11.0119 31.8612 15.0147C31.8612 19.0174 31.8406 19.4863 31.7586 21.0686Z" fill="#FFFDFD"/>
<path d="M17.5649 7.29639C12.6012 7.29639 8.57385 10.7481 8.57385 15.003C8.57385 19.2578 12.6012 22.7096 17.5649 22.7096C22.5288 22.7096 26.5559 19.2578 26.5559 15.003C26.5559 10.7481 22.5288 7.29639 17.5649 7.29639ZM17.5649 20.002C14.3447 20.002 11.7326 17.7634 11.7326 15.003C11.7326 12.2426 14.3447 10.0039 17.5649 10.0039C20.7853 10.0039 23.3971 12.2426 23.3971 15.003C23.3971 17.7634 20.7853 20.002 17.5649 20.002V20.002Z" fill="#FFFDFD"/>
<path d="M29.0106 6.99152C29.0106 7.98506 28.0708 8.79065 26.9114 8.79065C25.7522 8.79065 24.8124 7.98506 24.8124 6.99152C24.8124 5.99775 25.7522 5.19238 26.9114 5.19238C28.0708 5.19238 29.0106 5.99775 29.0106 6.99152V6.99152Z" fill="#FFFDFD"/>
</svg>
