<svg width="56" height="32" viewBox="0 0 56 32" fill="none" xmlns="http://www.w3.org/2000/svg">
<path d="M55.4756 28.8995C55.4081 28.7531 55.3452 28.6317 55.2867 28.5345C54.319 26.7819 52.4699 24.6307 49.7404 22.0803L49.6828 22.0219L49.6539 21.9933L49.6247 21.9639H49.5954C48.3566 20.7763 47.5722 19.9778 47.2437 19.569C46.6426 18.7902 46.5079 18.002 46.8364 17.2032C47.0685 16.5998 47.9404 15.3254 49.4499 13.3782C50.2439 12.3463 50.8727 11.5193 51.3371 10.8962C54.6864 6.41831 56.1385 3.55689 55.693 2.3108L55.52 2.01961C55.4037 1.8443 55.1037 1.68392 54.6203 1.53766C54.1358 1.3917 53.5165 1.36756 52.7613 1.46483L44.3986 1.52293C44.2632 1.47465 44.0697 1.47915 43.8177 1.53766C43.566 1.59616 43.4401 1.62552 43.4401 1.62552L43.2945 1.69865L43.179 1.78651C43.0822 1.8446 42.9757 1.94678 42.8594 2.09284C42.7438 2.23839 42.6471 2.40919 42.5698 2.60384C41.6593 4.95947 40.6241 7.14962 39.4623 9.17418C38.746 10.3814 38.0882 11.4276 37.4874 12.3135C36.8874 13.199 36.3841 13.8515 35.9779 14.2697C35.5711 14.6884 35.2039 15.0237 34.8742 15.2771C34.545 15.5305 34.2936 15.6376 34.1196 15.5985C33.9452 15.5593 33.7809 15.5204 33.6254 15.4815C33.3546 15.3062 33.1367 15.0678 32.9725 14.7661C32.8075 14.4644 32.6964 14.0846 32.6384 13.6271C32.5806 13.1693 32.5464 12.7755 32.5367 12.4444C32.5276 12.1137 32.5318 11.646 32.5514 11.0425C32.5716 10.4388 32.5806 10.0303 32.5806 9.81609C32.5806 9.07619 32.5949 8.27318 32.6237 7.40686C32.653 6.54054 32.6767 5.85413 32.6965 5.34845C32.7163 4.84226 32.7254 4.30672 32.7254 3.74212C32.7254 3.17753 32.6913 2.73476 32.6237 2.41339C32.557 2.09243 32.4546 1.78088 32.3196 1.47885C32.1839 1.17712 31.9851 0.94371 31.7243 0.778015C31.4631 0.612524 31.1382 0.481194 30.7516 0.383618C29.7255 0.15011 28.4189 0.023793 26.8312 0.00415505C23.2307 -0.0347118 20.9172 0.199103 19.8912 0.705292C19.4846 0.919162 19.1168 1.21138 18.7878 1.58102C18.4393 2.00948 18.3907 2.2433 18.6423 2.28175C19.804 2.45676 20.6264 2.87539 21.1104 3.53725L21.2848 3.88798C21.4205 4.14102 21.556 4.58901 21.6916 5.23134C21.8269 5.87366 21.9143 6.58421 21.9527 7.36257C22.0494 8.78397 22.0494 10.0007 21.9527 11.0129C21.8558 12.0255 21.7643 12.8137 21.6769 13.3783C21.5895 13.9429 21.459 14.4004 21.2848 14.7508C21.1104 15.1012 20.9944 15.3153 20.9362 15.3931C20.8781 15.4708 20.8297 15.5198 20.7913 15.539C20.5396 15.636 20.2779 15.6854 20.0071 15.6854C19.7358 15.6854 19.4069 15.549 19.0198 15.2763C18.6328 15.0036 18.2312 14.629 17.8149 14.152C17.3986 13.6749 16.9292 13.0081 16.4063 12.1516C15.8838 11.2951 15.3417 10.2828 14.7803 9.11475L14.3158 8.26766C14.0255 7.7227 13.6288 6.92921 13.1255 5.88788C12.6218 4.84615 12.1767 3.83847 11.7897 2.86506C11.635 2.45624 11.4026 2.145 11.0929 1.93083L10.9475 1.84297C10.8509 1.76523 10.6958 1.68269 10.483 1.59473C10.27 1.50687 10.0476 1.44386 9.81514 1.4051L1.85878 1.4632C1.04574 1.4632 0.494088 1.64843 0.203615 2.01838L0.0873655 2.19338C0.0292913 2.29086 0 2.44653 0 2.66081C0 2.87498 0.0580741 3.13785 0.174324 3.44909C1.33581 6.19432 2.59889 8.84186 3.96359 11.3921C5.32828 13.9424 6.51417 15.9967 7.52055 17.5533C8.52713 19.1109 9.55314 20.581 10.5986 21.9628C11.644 23.3451 12.336 24.231 12.6746 24.6202C13.0136 25.0101 13.2799 25.3016 13.4734 25.4962L14.1995 26.1969C14.6641 26.6643 15.3463 27.2239 16.2465 27.876C17.1469 28.5284 18.1437 29.1708 19.2375 29.804C20.3314 30.4362 21.6041 30.9521 23.0561 31.3511C24.508 31.7505 25.9211 31.9108 27.2957 31.8334H30.6351C31.3123 31.7746 31.8254 31.5605 32.1742 31.1908L32.2897 31.0445C32.3674 30.9283 32.4401 30.7477 32.5073 30.5048C32.5752 30.2615 32.609 29.9934 32.609 29.7018C32.5891 28.8648 32.6525 28.1105 32.7973 27.4389C32.9421 26.7676 33.107 26.2614 33.2915 25.9205C33.4759 25.5799 33.684 25.2925 33.9156 25.0595C34.1477 24.826 34.3131 24.6845 34.4101 24.6358C34.5065 24.5868 34.5835 24.5536 34.6416 24.5336C35.1062 24.378 35.6529 24.5287 36.2827 24.9866C36.912 25.4441 37.5022 26.009 38.0542 26.6804C38.606 27.3524 39.2689 28.1063 40.0431 28.9433C40.8178 29.7806 41.4951 30.4029 42.0757 30.8124L42.6562 31.1628C43.0439 31.3966 43.5473 31.6108 44.1669 31.8054C44.7853 32 45.3272 32.0486 45.7925 31.9514L53.2259 31.8348C53.9611 31.8348 54.5332 31.7123 54.939 31.4694C55.3457 31.2261 55.5872 30.958 55.6651 30.6664C55.7428 30.3745 55.747 30.0433 55.6799 29.6731C55.611 29.3037 55.5432 29.0455 55.4756 28.8995Z" fill="white"/>
</svg>
