<svg width="45" height="30" viewBox="0 0 45 30" fill="none" xmlns="http://www.w3.org/2000/svg">
<g clip-path="url(#clip0)">
<path d="M22.7719 30C29.2819 30 26.9606 25.604 27.4631 24.34C27.4556 23.396 27.4481 22.488 27.4781 21.936C27.8906 22.06 28.8637 22.586 30.8737 24.67C33.9769 28.01 34.77 30 37.2769 30H41.8912C43.3537 30 44.115 29.354 44.4956 28.812C44.8631 28.288 45.2231 27.368 44.8294 25.936C43.8 22.488 37.7962 16.534 37.4231 15.906C37.4794 15.79 37.5694 15.636 37.6163 15.556H37.6125C38.7975 13.886 43.32 6.658 43.9856 3.766C43.9875 3.762 43.9894 3.756 43.9894 3.75C44.3494 2.43 44.0194 1.574 43.6781 1.09C43.1644 0.366 42.3469 0 41.2425 0H36.6281C35.0831 0 33.9113 0.83 33.3188 2.344C32.3269 5.034 29.5406 10.566 27.4519 12.524C27.3881 9.75 27.4312 7.632 27.465 6.058C27.5325 2.988 27.75 0 24.7631 0H17.5106C15.6394 0 13.8488 2.18 15.7875 4.768C17.4825 7.036 16.3969 8.3 16.7625 14.592C15.3375 12.962 12.8025 8.56 11.01 2.934C10.5075 1.412 9.74625 0.00199986 7.60312 0.00199986H2.98875C1.1175 0.00199986 0 1.09 0 2.912C0 7.004 8.49188 30 22.7719 30V30ZM7.60312 3.002C8.01 3.002 8.05125 3.002 8.35312 3.916C10.1887 9.682 14.3063 18.214 17.3138 18.214C19.5731 18.214 19.5731 15.744 19.5731 14.814L19.5712 7.41C19.4475 4.96 18.6113 3.74 18.0619 3L24.6394 3.008C24.6431 3.042 24.6019 11.198 24.6581 13.174C24.6581 15.98 26.7469 17.588 30.0075 14.068C33.4481 9.926 35.8275 3.734 35.9231 3.482C36.0638 3.122 36.1856 3 36.6281 3H41.2425H41.2613C41.2594 3.006 41.2594 3.012 41.2575 3.018C40.8356 5.118 36.6713 11.81 35.2781 13.888C35.2556 13.92 35.235 13.954 35.2144 13.988C34.6013 15.056 34.1025 16.236 35.2988 17.896H35.3006C35.4094 18.036 35.6925 18.364 36.105 18.82C37.3875 20.232 41.7862 25.06 42.1762 26.98C41.9175 27.024 41.6363 26.992 37.2769 27.002C36.3488 27.002 35.6231 25.522 32.8537 22.542C30.3637 19.958 28.7475 18.902 27.2756 18.902C24.4181 18.902 24.6262 21.376 24.6525 24.368C24.6619 27.612 24.6431 26.586 24.6638 26.79C24.4969 26.86 24.0188 27 22.7719 27C10.875 27 3.1275 6.858 2.82937 3.008C2.9325 2.998 4.35187 3.004 7.60312 3.002V3.002Z" fill="#FFFCFC"/>
</g>
<defs>
<clipPath id="clip0">
<rect width="45" height="30" fill="white"/>
</clipPath>
</defs>
</svg>
