<svg width="35" height="30" viewBox="0 0 35 30" fill="none" xmlns="http://www.w3.org/2000/svg">
<path d="M34.3946 15.1883C33.9662 13.8414 32.4435 12.8479 30.6108 12.7C26.2719 12.3493 21.8782 12.3477 17.5059 12.3493C13.1319 12.3477 8.73903 12.3493 4.39878 12.7C2.56702 12.8482 1.04528 13.8418 0.617292 15.1883C0.00731599 17.1062 0 19.1998 0 21.1746C0 23.1494 1.19209e-07 25.2427 0.609976 27.1606C1.03797 28.5071 2.5597 29.5007 4.39238 29.6489C8.73171 29.9999 13.1245 30.0012 17.4982 29.9999C21.8723 30.0016 26.2642 29.9999 30.6049 29.6489C32.4366 29.5007 33.9593 28.5071 34.3873 27.1606C34.9968 25.2427 35 23.1494 35 21.1746C34.9995 19.1995 35.0041 17.1062 34.3946 15.1883ZM9.98321 16.6748H7.45003V26.4142H5.097V16.6748H2.61V15.0794H9.98321V16.6748ZM16.3742 26.4145H14.2576V25.4931C13.4167 26.1906 12.6184 26.5307 11.8406 26.5307C11.1588 26.5307 10.6897 26.3308 10.478 25.903C10.3627 25.6476 10.2914 25.2433 10.2914 24.6472V17.9687H12.4062V24.187C12.4062 24.5456 12.4062 24.7319 12.4254 24.7821C12.4762 25.0197 12.6367 25.1401 12.9202 25.1401C13.3445 25.1401 13.788 24.9036 14.2572 24.4235V17.9687H16.3738L16.3742 26.4145ZM24.4096 23.8796C24.4096 24.6607 24.3369 25.2235 24.1956 25.5815C23.913 26.2097 23.3474 26.5307 22.506 26.5307C21.7534 26.5307 21.0273 26.2283 20.3199 25.5964V26.4149H18.2051V15.0794H20.3199V18.7813C21.003 18.1728 21.7282 17.8652 22.506 17.8652C23.3474 17.8652 23.9134 18.1857 24.1956 18.818C24.3378 19.1578 24.4096 19.7162 24.4096 20.5159V23.8796ZM32.3918 22.4705H28.1618V23.9676C28.1618 24.7494 28.5152 25.1398 29.2423 25.1398C29.7631 25.1398 30.0662 24.935 30.1869 24.5261C30.2066 24.443 30.2345 24.1029 30.2345 23.4892H32.3923V23.7125C32.3923 24.2058 32.3662 24.5456 32.347 24.6984C32.2761 25.0372 32.1097 25.3446 31.8532 25.6152C31.2674 26.2286 30.3996 26.531 29.2949 26.531C28.1883 26.531 27.346 26.2428 26.7347 25.6662C26.2861 25.2433 26.0557 24.5777 26.0557 23.6801V20.722C26.0557 19.8191 26.2601 19.1588 26.7095 18.732C27.3204 18.154 28.1622 17.8662 29.2427 17.8662C30.304 17.8662 31.1454 18.154 31.738 18.732C32.181 19.1588 32.3927 19.8191 32.3927 20.722L32.3918 22.4705Z" fill="white"/>
<path d="M29.2235 19.2432C28.5166 19.2432 28.1622 19.6339 28.1622 20.4147V21.1961H30.277V20.4147C30.2766 19.6339 29.9231 19.2432 29.2235 19.2432Z" fill="white"/>
<path d="M21.3743 19.2432C21.0259 19.2432 20.6729 19.3623 20.3194 19.6154V24.763C20.6724 25.0191 21.0259 25.1401 21.3743 25.1401C21.9843 25.1401 22.2943 24.763 22.2943 24.0004V20.3955C22.2943 19.6339 21.9843 19.2432 21.3743 19.2432Z" fill="white"/>
<path d="M22.5558 11.5706C23.3354 11.5706 24.1466 11.2278 24.9975 10.5224V11.4534H27.1352V2.91797H24.9975V9.44157C24.5238 9.92593 24.0748 10.1655 23.6473 10.1655C23.361 10.1655 23.1928 10.043 23.1461 9.80319C23.1201 9.75257 23.1201 9.56432 23.1201 9.20204V2.91797H20.9893V9.66721C20.9893 10.27 21.0606 10.6779 21.1786 10.9363C21.3935 11.3687 21.8676 11.5706 22.5558 11.5706Z" fill="white"/>
<path d="M7.67454 6.81475V11.4535H10.0449V6.81475L12.8964 0H10.4995L8.88215 4.49784L7.19946 0H4.70514C5.20492 1.06168 5.72481 2.12866 6.22459 3.19133C6.985 4.78865 7.45963 5.99293 7.67454 6.81475Z" fill="white"/>
<path d="M16.0733 11.5708C17.1442 11.5708 17.9764 11.2793 18.5667 10.697C19.0153 10.2699 19.2302 9.59694 19.2302 8.68976V5.7009C19.2302 4.78843 19.0157 4.12145 18.5667 3.69036C17.9764 3.10642 17.1447 2.81494 16.0733 2.81494C15.0079 2.81494 14.1762 3.10642 13.5845 3.69036C13.1304 4.12145 12.9155 4.78843 12.9155 5.7009V8.68976C12.9155 9.59694 13.1304 10.2699 13.5845 10.697C14.1757 11.2793 15.0079 11.5708 16.0733 11.5708ZM15.0532 5.3909C15.0532 4.60117 15.3842 4.20747 16.0733 4.20747C16.7624 4.20747 17.0925 4.60084 17.0925 5.3909V8.98123C17.0925 9.77096 16.7624 10.166 16.0733 10.166C15.3842 10.166 15.0532 9.77096 15.0532 8.98123V5.3909Z" fill="white"/>
</svg>
