<svg width="51" height="40" viewBox="0 0 51 40" fill="none" xmlns="http://www.w3.org/2000/svg">
<g clip-path="url(#clip0)">
<path d="M46.3328 20.2509C45.8058 18.4551 43.9329 17.1304 41.6786 16.9332C36.3417 16.4656 30.9372 16.4634 25.5592 16.4656C20.1789 16.4634 14.7756 16.4656 9.43695 16.9332C7.18383 17.1308 5.31204 18.4555 4.7856 20.2509C4.03531 22.8081 4.02631 25.5996 4.02631 28.2326C4.02631 30.8657 4.02631 33.6567 4.7766 36.214C5.30304 38.0093 7.17483 39.334 9.42908 39.5317C14.7666 39.9997 20.1699 40.0015 25.5496 39.9997C30.9299 40.0019 36.3321 39.9997 41.6713 39.5317C43.9245 39.334 45.7974 38.0093 46.3238 36.214C47.0735 33.6567 47.0775 30.8657 47.0775 28.2326C47.0769 25.5991 47.0825 22.8081 46.3328 20.2509ZM16.306 22.2329H13.1901V35.2188H10.2958V22.2329H7.2367V20.1058H16.306V22.2329ZM24.1672 35.2192H21.5637V33.9907C20.5293 34.9206 19.5473 35.3741 18.5906 35.3741C17.752 35.3741 17.175 35.1076 16.9145 34.5372C16.7728 34.1967 16.6851 33.6576 16.6851 32.8627V23.9581H19.2863V32.2491C19.2863 32.7273 19.2863 32.9756 19.31 33.0427C19.3724 33.3594 19.5698 33.52 19.9185 33.52C20.4405 33.52 20.986 33.2046 21.5631 32.5645V23.9581H24.1666L24.1672 35.2192ZM34.0509 31.8393C34.0509 32.8808 33.9614 33.6312 33.7877 34.1085C33.4401 34.9462 32.7443 35.3741 31.7094 35.3741C30.7837 35.3741 29.8905 34.9709 29.0204 34.1283V35.2197H26.4192V20.1058H29.0204V25.0415C29.8607 24.2303 30.7527 23.8201 31.7094 23.8201C32.7443 23.8201 33.4406 24.2475 33.7877 25.0905C33.9626 25.5435 34.0509 26.2882 34.0509 27.3544V31.8393ZM43.8693 29.9605H38.6662V31.9566C38.6662 32.999 39.101 33.5196 39.9953 33.5196C40.6359 33.5196 41.0088 33.2465 41.1573 32.7013C41.1814 32.5905 41.2158 32.1371 41.2158 31.3188H43.8699V31.6165C43.8699 32.2743 43.8378 32.7273 43.8142 32.9311C43.727 33.3828 43.5223 33.7926 43.2068 34.1535C42.4863 34.9713 41.4188 35.3745 40.06 35.3745C38.6989 35.3745 37.6628 34.9903 36.9109 34.2214C36.3591 33.6576 36.0756 32.7701 36.0756 31.5733V27.6292C36.0756 26.4253 36.3271 25.5449 36.8799 24.9758C37.6313 24.2052 38.6668 23.8214 39.9958 23.8214C41.3012 23.8214 42.3361 24.2052 43.065 24.9758C43.61 25.5449 43.8705 26.4253 43.8705 27.6292V29.9605H43.8693Z" fill="white"/>
<path d="M39.9722 25.6577C39.1027 25.6577 38.6668 26.1787 38.6668 27.2197V28.2617H41.2681V27.2197C41.2675 26.1787 40.8328 25.6577 39.9722 25.6577Z" fill="white"/>
<path d="M30.3174 25.6577C29.8888 25.6577 29.4546 25.8165 29.0198 26.154V33.0175C29.454 33.3589 29.8888 33.5204 30.3174 33.5204C31.0677 33.5204 31.449 33.0175 31.449 32.0007V27.1942C31.449 26.1787 31.0677 25.6577 30.3174 25.6577Z" fill="white"/>
<path d="M31.7707 15.4274C32.7297 15.4274 33.7274 14.9704 34.7741 14.0299V15.2713H37.4035V3.89062H34.7741V12.5888C34.1914 13.2346 33.6391 13.5539 33.1133 13.5539C32.7612 13.5539 32.5542 13.3907 32.4968 13.0709C32.4648 13.0034 32.4648 12.7524 32.4648 12.2694V3.89062H29.8438V12.8896C29.8438 13.6933 29.9315 14.2373 30.0767 14.5818C30.341 15.1583 30.9243 15.4274 31.7707 15.4274Z" fill="white"/>
<path d="M13.4663 9.08633V15.2714H16.382V9.08633L19.8893 0H16.941L14.9517 5.99712L12.8819 0H9.81384C10.4286 1.41558 11.0681 2.83821 11.6828 4.25511C12.6182 6.38487 13.202 7.99057 13.4663 9.08633Z" fill="white"/>
<path d="M23.797 15.4278C25.1143 15.4278 26.1379 15.0392 26.864 14.2628C27.4157 13.6933 27.6801 12.7961 27.6801 11.5865V7.60137C27.6801 6.38474 27.4163 5.49543 26.864 4.92064C26.1379 4.14205 25.1148 3.75342 23.797 3.75342C22.4866 3.75342 21.4635 4.14205 20.7357 4.92064C20.1772 5.49543 19.9128 6.38474 19.9128 7.60137V11.5865C19.9128 12.7961 20.1772 13.6933 20.7357 14.2628C21.4629 15.0392 22.4866 15.4278 23.797 15.4278ZM22.5422 7.18803C22.5422 6.13506 22.9494 5.61012 23.797 5.61012C24.6446 5.61012 25.0507 6.13462 25.0507 7.18803V11.9751C25.0507 13.0281 24.6446 13.5548 23.797 13.5548C22.9494 13.5548 22.5422 13.0281 22.5422 11.9751V7.18803Z" fill="white"/>
</g>
<defs>
<clipPath id="clip0">
<rect width="51" height="40" fill="white"/>
</clipPath>
</defs>
</svg>
