<svg width="32" height="32" viewBox="0 0 32 32" fill="none" xmlns="http://www.w3.org/2000/svg">
<g clip-path="url(#clip0)">
<path d="M31.3333 6H0.666687C0.298687 6 0 6.29869 0 6.66669C0 7.03469 0.298687 7.33338 0.666687 7.33338H31.3334C31.7014 7.33338 32.0001 7.03469 32.0001 6.66669C32.0001 6.29869 31.7013 6 31.3333 6Z" fill="#FFFDFD"/>
<path d="M31.3333 15.3335H0.666687C0.298687 15.3335 0 15.6322 0 16.0002C0 16.3682 0.298687 16.6669 0.666687 16.6669H31.3334C31.7014 16.6669 32.0001 16.3682 32.0001 16.0002C32.0001 15.6322 31.7013 15.3335 31.3333 15.3335Z" fill="#FFFDFD"/>
<path d="M31.3333 24.6665H0.666687C0.298687 24.6665 0 24.9651 0 25.3331C0 25.7011 0.298687 25.9998 0.666687 25.9998H31.3334C31.7014 25.9998 32.0001 25.7011 32.0001 25.3331C32 24.9651 31.7013 24.6665 31.3333 24.6665Z" fill="#FFFDFD"/>
</g>
<defs>
<clipPath id="clip0">
<rect width="32" height="32" fill="white"/>
</clipPath>
</defs>
</svg>
